
<svg id="Layer_1" enable-background="new 0 0 512.23 512.23" height="512" viewBox="0 0 512.23 512.23" width="512" xmlns="http://www.w3.org/2000/svg"><g><path d="m143.811 77.862h151.778v141.431h-151.778z" fill="#fff"/><path d="m46.946 421.708 90.933-158.151c3.887-6.76 5.932-14.421 5.932-22.218v-26.65h151.778v26.65c0 7.797 2.045 15.459 5.932 22.218l74.211 129.068-26.513 104.378h-259.038c-38.352-.562-62.352-42.046-43.235-75.295z" fill="#ffe630"/><path d="m218.019 77.862h77.57v141.431h-77.57z" fill="#fff5f5"/><path d="m295.589 241.338v-26.65h-77.57v282.315h131.2l26.513-104.378-74.211-129.068c-3.886-6.76-5.932-14.421-5.932-22.219z" fill="#ded600"/><path d="m33.942 414.232 90.933-158.151c2.575-4.479 3.937-9.577 3.937-14.742v-163.477c0-8.284 6.716-15 15-15h151.777c8.284 0 15 6.716 15 15v163.476c0 5.166 1.361 10.263 3.936 14.741l88.97 154.255-40.767-10.233-74.211-129.068c-5.187-9.021-7.928-19.29-7.928-29.695v-148.476h-121.777v148.476c0 10.405-2.742 20.673-7.929 29.696l-90.933 158.152c-6.237 10.847-6.25 23.848-.033 34.777 6.303 11.08 17.655 17.819 30.383 18.041h258.92c8.284 0 15 6.716 15 15s-6.716 15-15 15h-259.039c-.073 0-.146 0-.22-.001-23.511-.345-44.491-12.759-56.122-33.207-11.527-20.268-11.489-44.404.103-64.564z" fill="#fff5f5"/><g><path d="m169.738 17.446 15.215 115.046c1.149 8.689 8.558 15.183 17.323 15.183h33.368c8.681 0 16.045-6.373 17.292-14.964l16.699-115.048c1.35-9.301-5.861-17.637-15.259-17.64l-69.341-.023c-9.324-.003-16.519 8.203-15.297 17.446z" fill="#ca6d36"/><path d="m254.376.012-36.375-.012v147.664h17.643c8.681 0 16.045-6.373 17.292-14.964l16.699-115.048c1.35-9.3-5.861-17.636-15.259-17.64z" fill="#a05528"/></g><g fill="#e2ebf0"><path d="m364.219 497.003c0-8.284-6.716-15-15-15h-131.2v30h131.2c8.284 0 15-6.716 15-15z"/><path d="m310.589 241.338v-163.476c0-8.284-6.716-15-15-15h-77.57v30h62.57v148.476c0 10.406 2.742 20.674 7.928 29.695l74.211 129.068 40.767 10.233-88.97-154.255c-2.575-4.477-3.936-9.575-3.936-14.741z"/></g><g><path d="m117.796 92.862h203.809c8.284 0 15-6.716 15-15s-6.716-15-15-15h-203.809c-8.284 0-15 6.716-15 15s6.716 15 15 15z" fill="#fff5f5"/></g><path d="m321.605 62.862h-103.586v30h103.585c8.284 0 15-6.716 15-15s-6.715-15-14.999-15z" fill="#e2ebf0"/><g><g><path d="m300.41 365.97v-31.596c0-9.334-7.567-16.901-16.901-16.901s-16.901 7.567-16.901 16.901v31.596c0 9.334 7.567 16.901 16.901 16.901s16.901-7.567 16.901-16.901z" fill="#8c2a05"/></g><path d="m342.897 453.483v-33.752c0-32.318-26.199-58.517-58.517-58.517h-1.743c-32.318 0-58.517 26.199-58.517 58.517v33.752c0 32.318 26.199 58.517 58.517 58.517h1.743c32.318 0 58.517-26.199 58.517-58.517z" fill="#9cae00"/></g><g><path d="m438.512 469.743h31.596c9.334 0 16.901-7.567 16.901-16.901s-7.567-16.901-16.901-16.901h-31.596c-9.334 0-16.901 7.567-16.901 16.901s7.567 16.901 16.901 16.901z" fill="#662314"/></g><path d="m351.696 512.23h33.752c32.318 0 58.517-26.199 58.517-58.517v-1.743c0-32.318-26.199-58.517-58.517-58.517h-33.752c-32.318 0-58.517 26.199-58.517 58.517v1.743c0 32.318 26.199 58.517 58.517 58.517z" fill="#598614"/></g></svg>